<svg width="15" height="15" viewBox="0 0 15 15" fill="none" xmlns="http://www.w3.org/2000/svg">
<path d="M7.8075 0.482361C8.57484 0.470642 9.33656 0.476736 10.0978 0.470642C10.1231 1.42267 10.5094 2.27955 11.1239 2.91424L11.123 2.9133C11.7844 3.50908 12.645 3.89533 13.5938 3.96095L13.6069 3.96189V6.32252C12.7106 6.30002 11.8678 6.0933 11.108 5.73799L11.1464 5.75392C10.7789 5.5772 10.4681 5.3958 10.1728 5.1933L10.1972 5.20924C10.1916 6.9197 10.2028 8.63017 10.1855 10.3345C10.1372 11.2031 9.84844 11.9953 9.38531 12.6567L9.39469 12.6422C8.62031 13.7513 7.36594 14.4792 5.93953 14.5224H5.93297C5.87531 14.5252 5.80734 14.5266 5.73891 14.5266C4.92797 14.5266 4.17 14.3006 3.52406 13.9083L3.54281 13.9191C2.36719 13.2117 1.55625 12.0014 1.40625 10.5938L1.40437 10.5745C1.39266 10.2816 1.38703 9.98861 1.39875 9.70174C1.62844 7.46158 3.50531 5.72861 5.78672 5.72861C6.04312 5.72861 6.29437 5.75064 6.53859 5.79236L6.51234 5.78861C6.52406 6.65533 6.48891 7.52252 6.48891 8.38924C6.29062 8.31752 6.06187 8.2758 5.82328 8.2758C4.94766 8.2758 4.20281 8.83549 3.92719 9.61689L3.92297 9.63095C3.86062 9.83111 3.82453 10.0613 3.82453 10.2994C3.82453 10.396 3.83062 10.4916 3.84187 10.5853L3.84094 10.5741C3.99656 11.5331 4.81875 12.2569 5.81016 12.2569C5.83875 12.2569 5.86687 12.2564 5.895 12.255H5.89078C6.57656 12.2344 7.17187 11.8655 7.50844 11.3203L7.51312 11.3119C7.63828 11.1375 7.72406 10.9266 7.75266 10.6974L7.75313 10.6908C7.81172 9.64221 7.78828 8.5997 7.79391 7.55111C7.79953 5.19049 7.78828 2.83549 7.80562 0.480955L7.8075 0.482361Z" fill="black"/>
</svg>
